Coordinates
version=1
nRows=17
nColumns=36
inDegrees=yes

Units are S.I. units (second, meters, Newtons, ...)
If the header above contains a line with 'inDegrees', this indicates whether rotational values are in degrees (yes) or radians (no).

endheader
time	pelvis_tilt	pelvis_list	pelvis_rotation	pelvis_tx	pelvis_ty	pelvis_tz	hip_flexion_r	hip_adduction_r	hip_rotation_r	knee_angle_r	knee_angle_r_beta	ankle_angle_r	subtalar_angle_r	mtp_angle_r	hip_flexion_l	hip_adduction_l	hip_rotation_l	knee_angle_l	knee_angle_l_beta	ankle_angle_l	subtalar_angle_l	mtp_angle_l	lumbar_extension	lumbar_bending	lumbar_rotation	arm_flex_r	arm_add_r	arm_rot_r	elbow_flex_r	pro_sup_r	arm_flex_l	arm_add_l	arm_rot_l	elbow_flex_l	pro_sup_l
      1.29000000	      1.40608715	      4.63300415	     93.64047188	     -0.17554425	      0.97146959	     -0.48072565	     -0.91260754	      4.75253663	    -10.91301914	     14.91696915	      0.26035023	      8.70818816	      3.00475906	     -7.49999962	     17.23898118	     -5.93934496	     -7.24379575	     62.93944863	      1.09850061	     -4.79033789	    -27.58513880	     -7.49999962	    -16.02529220	      2.56139073	      1.36893678	     -3.20603717	     -5.57373749	    -28.26690399	     64.89182716	     85.90165345	      3.10176542	     -5.22742475	    -27.70124345	     37.84775717	     86.00801239
      1.30000000	      1.30703719	      4.68608585	     93.34916224	     -0.17498765	      0.97177732	     -0.49100563	     -1.87646328	      4.62738954	    -11.37717868	     14.50135554	      0.25309640	      9.00708085	      4.41736878	     -7.49999963	     18.04814855	     -5.95481330	     -7.90081029	     61.30427028	      1.06996136	     -3.61383230	    -26.96447455	     -7.49999963	    -16.30983971	      2.35833138	      1.72800158	     -2.83426277	     -5.75527656	    -28.02926544	     65.16489977	     86.39220611	      2.54408954	     -5.20140632	    -28.57489246	     37.65515892	     86.28337353
      1.31000000	      1.46701028	      4.38388689	     93.07043310	     -0.17439226	      0.97117418	     -0.50084522	     -2.29656438	      4.78963075	    -11.59632108	     14.30449027	      0.24966045	      9.24590688	      4.68390359	     -7.49999963	     19.29136119	     -6.20468004	     -8.43384365	     59.54096388	      1.03918586	     -2.98667680	    -26.84255730	     -7.49999963	    -16.17637504	      2.41055459	      2.15480689	     -2.48360362	     -5.92303572	    -27.90839313	     65.45074503	     86.31172880	      1.94522683	     -5.30084925	    -28.78760993	     37.41973540	     86.15777184
      1.32000000	      1.32658527	      4.49421858	     92.47763748	     -0.17361459	      0.97136948	     -0.51135014	     -3.31378560	      4.55259031	    -11.93367926	     13.93457269	      0.24320417	      9.34774517	      6.53151375	     -7.49999964	     19.67690152	     -6.25697280	     -9.54410296	     57.19086631	      0.99816892	     -2.04069401	    -25.79317721	     -7.49999964	    -16.45455482	      2.10225532	      2.79924586	     -2.18095426	     -6.26881030	    -27.41522376	     65.60398443	     86.53377559	      1.51574191	     -5.23625390	    -29.67546902	     36.87983452	     86.21645430
      1.33000000	      1.23513154	      4.92271005	     92.13767990	     -0.17306041	      0.97168547	     -0.52173415	     -4.71169336	      4.40100440	    -12.63370830	     13.49703067	      0.23556762	      9.89445884	      8.54055187	     -7.49999965	     19.66602211	     -6.29464484	    -10.48365929	     54.55917138	      0.95223718	     -1.21853485	    -24.73400427	     -7.49999965	    -17.16485341	      1.89138600	      3.13115824	     -1.74820899	     -6.44526260	    -27.07849291	     65.99823578	     87.05712060	      1.13147781	     -5.09712551	    -31.19238658	     36.66260699	     86.63926350
      1.34000000	      1.37549122	      4.75887470	     91.68658104	     -0.17257500	      0.97101303	     -0.53201039	     -5.29619821	      4.47538429	    -13.01224391	     13.30390200	      0.23219689	      9.95914195	      9.30330213	     -7.49999965	     20.25493978	     -6.57708396	    -11.54493045	     51.76004089	      0.90338313	     -0.81776482	    -23.86848680	     -7.49999965	    -17.14210498	      1.91731885	      3.65108499	     -1.40558788	     -6.71926081	    -26.78947952	     66.16887205	     87.11842852	      0.54037700	     -5.05104722	    -31.80522429	     36.31637193	     86.71892158
      1.35000000	      1.72008205	      4.58769880	     91.38790106	     -0.17244741	      0.96984587	     -0.54254632	     -5.96284376	      4.81253013	    -13.19774255	     12.99506184	      0.22680662	     10.16613016	      9.70638274	     -7.49999965	     20.97721771	     -6.71468318	    -11.71860615	     49.04485578	      0.85599421	     -0.55462552	    -23.63722983	     -7.49999965	    -17.02745198	      2.25508332	      4.07494672	     -1.14923356	     -6.95853414	    -26.66863707	     66.52420546	     87.20466816	     -0.12769239	     -5.03662901	    -32.13326452	     35.96197413	     86.78978463
      1.36000000	      1.56423533	      5.08153867	     90.71173473	     -0.17189173	      0.96984191	     -0.55319702	     -7.29183971	      4.48040092	    -13.57981252	     12.86273066	      0.22449700	     10.52946822	     11.34324656	     -7.49999966	     20.40657118	     -6.62491485	    -13.05308475	     45.54815116	      0.79496521	      0.07931687	    -21.90909585	     -7.49999966	    -17.72362927	      1.91541987	      4.65863119	     -0.73323926	     -7.32258686	    -26.06404359	     66.71466095	     87.36980043	     -0.49211316	     -4.90074689	    -33.38781220	     35.53808348	     86.95560735
      1.37000000	      1.59613369	      5.28714369	     90.31505851	     -0.17185808	      0.96917772	     -0.56375366	     -8.26999368	      4.38457673	    -13.92142436	     12.78470125	      0.22313513	     10.87087331	     12.44431333	     -7.49999967	     20.23498803	     -6.64517596	    -14.28491778	     42.03540654	      0.73365625	      0.34734967	    -20.15985855	     -7.49999967	    -18.09276601	      1.85921035	      5.11718588	     -0.48702564	     -7.57438878	    -25.81981019	     67.11952551	     87.40120601	     -0.85982376	     -4.57874155	    -34.94737820	     35.21974719	     87.31025541
      1.38000000	      1.86357603	      5.17165588	     89.70503934	     -0.17123163	      0.96775314	     -0.57432820	     -8.82371578	      4.50831659	    -13.92260623	     12.89301764	      0.22502561	     11.23775827	     13.20152580	     -7.49999968	     20.48330460	     -6.79184919	    -15.02021532	     38.67439916	      0.67499560	      0.49961812	    -18.65709565	     -7.49999968	    -18.05376048	      2.00793513	      5.72754099	     -0.15315091	     -7.86815157	    -25.46206861	     67.28459791	     87.38378983	     -1.30208952	     -4.46781705	    -35.79040900	     34.64743223	     87.43803821
      1.39000000	      1.84728585	      5.19399620	     89.24752205	     -0.17135650	      0.96661673	     -0.58478994	     -9.50172418	      4.33013226	    -13.87834439	     13.03143086	      0.22744137	     11.64340392	     13.59161124	     -7.49999969	     20.38432829	     -6.67924910	    -16.42586588	     34.91579850	      0.60939564	      0.55593110	    -15.99029358	     -7.49999969	    -18.19060974	      1.90524670	      6.15362374	      0.18201339	     -8.12438262	    -25.18187872	     67.47497081	     87.30373074	     -1.79764132	     -4.35238637	    -36.52638952	     34.31515350	     87.50326244
      1.40000000	      1.86535817	      5.08402710	     88.77939952	     -0.17163544	      0.96515213	     -0.59530880	    -10.02045971	      4.18125322	    -13.76434513	     13.18332212	      0.23009238	     12.10107526	     13.85113956	     -7.49999969	     20.36536092	     -6.46632803	    -17.62328216	     31.10675874	      0.54291536	      0.85377197	    -12.99728946	     -7.49999969	    -18.17346198	      1.86636308	      6.55613405	      0.52677988	     -8.39822138	    -24.88593459	     67.62540400	     87.38194402	     -2.29176366	     -4.21134443	    -37.25819241	     33.90791297	     87.71156499
      1.41000000	      1.86816246	      5.07267239	     88.36174918	     -0.17218313	      0.96377321	     -0.60609110	    -10.63888456	      4.01364543	    -13.53432430	     13.38702532	      0.23364767	     12.38403724	     13.84147901	     -7.49999970	     20.26809050	     -6.17822206	    -18.76296302	     27.44752002	      0.47904960	      1.35857232	     -9.38028881	     -7.49999970	    -18.25088572	      1.83235581	      6.98076709	      0.70953704	     -8.66732347	    -24.69336758	     67.93721480	     87.38000964	     -2.62945970	     -3.94550984	    -38.36545690	     33.52806332	     87.90328386
      1.42000000	      1.85754116	      4.71175487	     88.07827327	     -0.17311123	      0.96185019	     -0.61669390	    -10.78485125	      3.82651156	    -13.41891202	     13.78937055	      0.24066992	     12.77704987	     13.49829649	     -7.49999970	     20.60575012	     -5.68262764	    -19.28485643	     23.83453989	      0.41599120	      1.55285592	     -6.19946618	     -7.49999970	    -17.91365159	      1.86287813	      7.11458553	      1.00489350	     -8.87993689	    -24.30605276	     67.97172606	     87.46440187	     -3.19199655	     -3.80721180	    -38.89825535	     33.16299563	     88.05588338
      1.43000000	      1.76102471	      4.53226434	     87.53980007	     -0.17385635	      0.96017526	     -0.62712296	    -11.03357909	      3.46808233	    -13.08308941	     14.35823695	      0.25059851	     13.27083292	     13.45468056	     -7.49999970	     20.65357566	     -5.25323011	    -20.60312143	     20.31163370	      0.35450488	      1.80627193	     -1.53722977	     -7.49999970	    -17.86335299	      1.73756688	      7.53320276	      1.39877315	     -9.21516083	    -24.09057459	     68.00754753	     87.53005535	     -3.45076315	     -3.53430200	    -40.03413321	     32.61134621	     88.26737216
      1.44000000	      1.50730958	      4.32730853	     87.24634056	     -0.17544375	      0.95849773	     -0.63773039	    -11.25079831	      2.97413015	    -12.71905703	     14.90763460	      0.26018731	     13.63787888	     13.01863285	     -7.49999971	     20.67911812	     -4.43100586	    -21.29879550	     16.75958814	      0.29250999	      1.79810846	      2.76290568	     -7.49999971	    -17.76489268	      1.54143755	      7.68679442	      1.70063657	     -9.47818243	    -23.91892799	     68.11793356	     87.41793337	     -3.73638700	     -3.13752106	    -41.24608431	     32.24940418	     88.41229204
      1.45000000	      1.49929755	      3.88054698	     86.87713328	     -0.17606781	      0.95643247	     -0.64834400	    -11.18342705	      2.73029025	    -12.71785284	     15.52734469	      0.27100329	     13.90492206	     13.08975023	     -7.49999972	     21.13664224	     -4.01968005	    -21.67144944	     13.89449596	      0.24250470	      1.64263695	      6.14416286	     -7.49999972	    -17.34698323	      1.50338042	      7.89246676	      2.05536124	     -9.56995572	    -23.71921136	     67.96752534	     87.38474559	     -4.02428340	     -2.95153371	    -42.33268521	     31.73932761	     88.58508146
